<svg width="184" height="48" viewBox="0 0 184 48" fill="none" xmlns="http://www.w3.org/2000/svg">
<path d="M30.6293 37.657V43.6051H3.71165V37.657H30.6293ZM29.8658 0.636363V6.63778H4.3331V0.636363H29.8658ZM22.9588 21.0909V22.7599L6.57031 43.6051H0.870739V39.9119L15.4659 21.9432L0.870739 4.3473V0.636363H6.57031L22.9588 21.0909ZM43.3395 9.72727L48.3466 19.2621L53.478 9.72727H61.2372L53.3359 23.3636L61.4503 37H53.7266L48.3466 27.5717L43.0554 37H35.2429L43.3395 23.3636L35.527 9.72727H43.3395ZM65.2294 47.2273V9.72727H72.6868V14.3082H73.0241C73.3556 13.5743 73.835 12.8286 74.4624 12.071C75.1016 11.3016 75.9302 10.6624 76.9482 10.1534C77.978 9.63258 79.2564 9.37216 80.7834 9.37216C82.772 9.37216 84.6068 9.89299 86.2876 10.9347C87.9685 11.9645 89.312 13.5211 90.3182 15.6044C91.3243 17.6759 91.8274 20.2741 91.8274 23.3991C91.8274 26.4413 91.3362 29.0099 90.3537 31.1051C89.383 33.1884 88.0573 34.7687 86.3764 35.8459C84.7074 36.9112 82.8371 37.4439 80.7656 37.4439C79.2978 37.4439 78.049 37.2012 77.0192 36.7159C76.0012 36.2306 75.1667 35.621 74.5156 34.8871C73.8646 34.1413 73.3674 33.3897 73.0241 32.6321H72.7933V47.2273H65.2294ZM72.6335 23.3636C72.6335 24.9853 72.8584 26.3999 73.3082 27.6072C73.758 28.8146 74.4091 29.7557 75.2614 30.4304C76.1136 31.0933 77.1494 31.4247 78.3686 31.4247C79.5997 31.4247 80.6413 31.0874 81.4936 30.4126C82.3459 29.7261 82.991 28.7791 83.429 27.5717C83.8788 26.3525 84.1037 24.9498 84.1037 23.3636C84.1037 21.7893 83.8847 20.4044 83.4467 19.2088C83.0088 18.0133 82.3636 17.0781 81.5114 16.4034C80.6591 15.7287 79.6115 15.3913 78.3686 15.3913C77.1375 15.3913 76.0959 15.7169 75.2436 16.3679C74.4032 17.0189 73.758 17.9422 73.3082 19.1378C72.8584 20.3333 72.6335 21.742 72.6335 23.3636ZM103.934 0.636363V37H96.37V0.636363H103.934ZM121.816 37.5327C119.057 37.5327 116.672 36.9467 114.66 35.7749C112.66 34.5911 111.115 32.9458 110.026 30.8388C108.937 28.7199 108.392 26.2637 108.392 23.4702C108.392 20.6529 108.937 18.1908 110.026 16.0838C111.115 13.965 112.66 12.3196 114.66 11.1477C116.672 9.96401 119.057 9.37216 121.816 9.37216C124.574 9.37216 126.953 9.96401 128.953 11.1477C130.966 12.3196 132.516 13.965 133.605 16.0838C134.694 18.1908 135.239 20.6529 135.239 23.4702C135.239 26.2637 134.694 28.7199 133.605 30.8388C132.516 32.9458 130.966 34.5911 128.953 35.7749C126.953 36.9467 124.574 37.5327 121.816 37.5327ZM121.851 31.6733C123.106 31.6733 124.153 31.3182 124.994 30.608C125.834 29.8859 126.468 28.9034 126.894 27.6605C127.332 26.4176 127.551 25.0031 127.551 23.4169C127.551 21.8307 127.332 20.4162 126.894 19.1733C126.468 17.9304 125.834 16.9479 124.994 16.2259C124.153 15.5038 123.106 15.1428 121.851 15.1428C120.584 15.1428 119.519 15.5038 118.655 16.2259C117.803 16.9479 117.158 17.9304 116.72 19.1733C116.294 20.4162 116.08 21.8307 116.08 23.4169C116.08 25.0031 116.294 26.4176 116.72 27.6605C117.158 28.9034 117.803 29.8859 118.655 30.608C119.519 31.3182 120.584 31.6733 121.851 31.6733ZM139.657 37V9.72727H146.99V14.4858H147.274C147.771 12.7931 148.606 11.5147 149.778 10.6506C150.95 9.77462 152.299 9.33665 153.826 9.33665C154.205 9.33665 154.613 9.36032 155.051 9.40767C155.489 9.45502 155.874 9.52012 156.205 9.60298V16.3146C155.85 16.2081 155.359 16.1134 154.732 16.0305C154.104 15.9477 153.53 15.9062 153.009 15.9062C151.897 15.9062 150.902 16.1489 150.026 16.6342C149.162 17.1077 148.476 17.7706 147.967 18.6229C147.47 19.4751 147.221 20.4576 147.221 21.5703V37H139.657ZM170.776 37.5327C167.97 37.5327 165.555 36.9645 163.531 35.8281C161.519 34.6799 159.968 33.0582 158.879 30.9631C157.79 28.8561 157.246 26.3643 157.246 23.4879C157.246 20.6825 157.79 18.2204 158.879 16.1016C159.968 13.9827 161.501 12.3314 163.478 11.1477C165.467 9.96401 167.799 9.37216 170.474 9.37216C172.273 9.37216 173.948 9.66217 175.499 10.2422C177.061 10.8104 178.422 11.6686 179.582 12.8168C180.754 13.965 181.666 15.4091 182.317 17.1491C182.968 18.8774 183.293 20.9015 183.293 23.2216V25.299H160.264V20.6115H176.173C176.173 19.5225 175.937 18.5578 175.463 17.7173C174.99 16.8769 174.333 16.2199 173.492 15.7464C172.664 15.2611 171.699 15.0185 170.598 15.0185C169.45 15.0185 168.432 15.2848 167.544 15.8175C166.668 16.3383 165.982 17.0426 165.484 17.9304C164.987 18.8063 164.733 19.7829 164.721 20.8601V25.3168C164.721 26.6662 164.969 27.8321 165.467 28.8146C165.976 29.7971 166.692 30.5547 167.615 31.0874C168.538 31.62 169.633 31.8864 170.9 31.8864C171.74 31.8864 172.51 31.768 173.208 31.5312C173.906 31.2945 174.504 30.9394 175.001 30.4659C175.499 29.9924 175.877 29.4124 176.138 28.7259L183.134 29.1875C182.778 30.8684 182.05 32.3362 180.95 33.5909C179.861 34.8338 178.452 35.8045 176.724 36.5028C175.007 37.1894 173.025 37.5327 170.776 37.5327Z" fill="url(#paint0_linear_9_5)" fill-opacity="0.8"/>
<defs>
<linearGradient id="paint0_linear_9_5" x1="99.5" y1="-12" x2="99.5" y2="54" gradientUnits="userSpaceOnUse">
<stop offset="0.19" stop-color="#0593B0"/>
<stop offset="0.475" stop-color="#05FFD2"/>
<stop offset="0.95" stop-color="#1E1E95"/>
</linearGradient>
</defs>
</svg>
